<svg width="400" height="320" viewBox="0 0 400 320" fill="none" xmlns="http://www.w3.org/2000/svg">
<path d="M394.485 60.3256L272.814 0.0210876C260.253 17.3938 232.444 29.5172 200.011 29.5172C167.578 29.5172 139.769 17.3938 127.208 0.0210876L5.53691 60.3256C0.600067 62.8253 -1.39967 68.8245 1.03751 73.7613L36.7828 145.314C39.2824 150.251 45.2817 152.251 50.2185 149.814L85.5888 132.504C92.2129 129.254 99.9619 134.066 99.9619 141.502V299.981C99.9619 311.042 108.898 319.979 119.959 319.979H279.938C290.999 319.979 299.935 311.042 299.935 299.981V141.44C299.935 134.066 307.684 129.191 314.309 132.441L349.679 149.751C354.616 152.251 360.615 150.251 363.115 145.252L398.922 73.7613C401.422 68.8245 399.422 62.7628 394.485 60.3256Z" fill="#2F80ED"/>
</svg>
