<?xml version="1.0" standalone="no"?>
<!DOCTYPE svg PUBLIC "-//W3C//DTD SVG 20010904//EN"
 "http://www.w3.org/TR/2001/REC-SVG-20010904/DTD/svg10.dtd">
<svg version="1.0" xmlns="http://www.w3.org/2000/svg"
 width="260.000000pt" height="260.000000pt" viewBox="0 0 260.000000 260.000000"
 preserveAspectRatio="xMidYMid meet">
<metadata>
Created by potrace 1.14, written by Peter Selinger 2001-2017
</metadata>
<g transform="translate(0.000000,260.000000) scale(0.100000,-0.100000)"
fill="#000000" stroke="none">
<path d="M1775 2494 c-56 -12 -223 -70 -244 -86 -13 -10 -31 -18 -41 -18 -9 0
-34 -12 -55 -26 -21 -14 -48 -30 -59 -35 -12 -5 -36 -21 -55 -34 -58 -42 -94
-43 -154 -3 -65 44 -177 98 -203 98 -11 0 -37 9 -58 21 -51 27 -230 49 -249
30 -16 -16 -11 -108 13 -252 24 -140 25 -165 4 -173 -9 -3 -122 -6 -253 -6
-183 0 -241 -3 -256 -13 -16 -12 -17 -23 -11 -83 4 -38 15 -83 25 -100 10 -17
24 -48 31 -70 7 -21 18 -46 25 -54 7 -8 22 -33 34 -55 22 -41 61 -98 87 -126
29 -32 16 -56 -60 -118 -148 -121 -240 -251 -204 -287 8 -8 70 -28 139 -45 68
-16 138 -33 154 -37 48 -12 43 -40 -17 -109 -63 -73 -78 -94 -141 -193 -86
-136 -91 -159 -46 -192 25 -19 33 -19 147 -9 176 16 248 15 256 -5 10 -27 7
-46 -21 -131 -21 -65 -25 -89 -17 -110 9 -26 14 -28 66 -31 72 -4 171 22 227
59 25 16 47 29 51 29 3 0 30 -16 60 -35 30 -19 59 -35 64 -35 14 0 139 -51
154 -62 6 -6 12 -23 12 -39 0 -51 31 -61 161 -52 l114 8 9 40 c15 73 22 82 81
104 31 12 69 30 84 42 40 30 91 28 138 -3 21 -14 54 -29 73 -33 19 -4 57 -16
83 -26 51 -20 147 -25 177 -9 10 5 28 25 39 44 19 29 21 49 21 168 l0 136 37
28 c20 15 54 37 74 49 114 62 191 142 235 243 22 52 25 67 16 88 -14 30 -38
39 -127 49 -72 7 -155 44 -155 68 0 7 19 27 43 46 23 19 58 54 77 78 19 24 42
51 51 61 66 71 145 368 111 418 -24 37 -78 38 -137 4 -47 -27 -81 -32 -96 -14
-10 13 -8 24 14 67 64 125 86 191 93 285 8 104 1 122 -50 122 -17 0 -45 -8
-61 -19 -17 -10 -48 -24 -70 -31 -22 -7 -54 -20 -70 -29 -17 -10 -59 -23 -95
-30 -36 -7 -87 -19 -114 -27 -66 -19 -73 -18 -91 9 -13 21 -13 36 0 138 8 63
22 134 29 159 8 25 17 64 21 86 6 36 3 44 -17 58 -21 15 -58 19 -103 10z m-12
-191 c-1 -38 -8 -71 -18 -87 -10 -15 -21 -65 -28 -130 -9 -94 -9 -107 7 -131
l18 -27 142 4 c117 4 148 8 181 25 22 11 60 24 85 28 25 4 63 18 86 31 67 39
82 26 45 -38 -10 -18 -22 -49 -25 -69 -4 -21 -15 -48 -25 -61 -10 -13 -23 -40
-29 -60 -5 -20 -19 -47 -31 -59 -12 -13 -21 -30 -21 -39 0 -8 -9 -32 -20 -52
-25 -47 -18 -65 30 -79 40 -12 42 -12 169 36 87 32 113 -1 68 -86 -14 -25 -28
-61 -32 -80 -10 -45 -29 -69 -157 -202 -60 -62 -108 -116 -108 -120 0 -23 36
-80 69 -110 31 -28 49 -35 101 -41 35 -4 72 -12 82 -17 30 -16 22 -62 -18
-110 -44 -53 -121 -105 -230 -158 -23 -10 -46 -25 -50 -33 -5 -7 -11 -76 -14
-153 l-5 -140 -54 3 c-47 2 -151 42 -151 58 0 3 17 31 37 62 21 31 43 76 49
98 16 57 60 114 90 114 65 0 116 42 140 113 16 48 16 54 -1 104 -21 61 -36 77
-90 95 l-39 13 -2 145 c-2 103 -7 159 -19 195 -9 28 -20 81 -25 119 -5 41 -16
79 -28 95 -10 14 -23 38 -27 51 -7 23 -43 80 -98 155 -12 17 -40 47 -62 68
-22 21 -49 46 -60 57 -12 11 -26 20 -32 20 -6 0 -25 11 -42 25 -18 16 -51 29
-83 35 -29 5 -70 16 -90 24 -51 22 -221 22 -273 0 -21 -8 -63 -20 -93 -25 -30
-4 -65 -17 -76 -28 -12 -10 -31 -22 -42 -25 -34 -10 -162 -143 -169 -175 -3
-16 -15 -37 -25 -46 -11 -10 -23 -34 -26 -54 -4 -20 -17 -58 -29 -86 -14 -29
-26 -82 -30 -125 -4 -41 -14 -91 -22 -110 -9 -20 -19 -92 -24 -170 -7 -109
-12 -137 -26 -147 -32 -24 -49 -15 -59 30 -7 35 -16 45 -49 62 -22 12 -51 28
-65 38 -17 10 -58 19 -113 23 -57 5 -87 11 -87 19 0 14 100 110 193 184 62 51
67 57 67 94 0 39 -18 68 -80 132 -11 12 -20 26 -20 32 0 6 -10 24 -23 40 -13
15 -38 57 -56 93 -25 51 -32 75 -29 110 l3 45 235 5 c204 4 240 7 263 23 33
21 35 58 7 137 -11 30 -19 75 -19 100 l1 45 11 -55 c11 -48 15 -55 38 -58 30
-4 49 16 58 61 6 27 12 33 37 35 23 2 33 10 42 34 10 27 14 30 39 23 15 -3 37
-14 48 -24 11 -9 31 -23 45 -29 14 -7 40 -24 59 -37 37 -28 93 -33 126 -12 12
6 36 21 54 32 19 11 46 30 61 43 39 31 64 30 56 -4 -15 -59 30 -87 69 -44 10
11 32 22 49 26 29 5 116 75 116 93 0 4 -7 16 -15 27 -8 10 -15 22 -15 26 0 8
44 16 80 14 24 -1 25 -3 23 -63z m-958 17 c0 -13 -6 -25 -12 -27 -9 -3 -13 6
-13 27 0 21 4 30 13 28 6 -3 12 -15 12 -28z m620 -440 c133 -28 326 -163 288
-201 -12 -12 -110 7 -165 31 -56 24 -186 34 -332 25 -99 -6 -121 -11 -152 -31
-23 -16 -49 -24 -77 -24 -49 0 -62 -7 -71 -37 -8 -25 -21 -30 -32 -12 -3 6 3
23 13 38 11 14 23 36 27 48 16 50 147 139 241 163 41 11 211 11 260 0z m-115
-221 c63 -1 87 -4 70 -9 -31 -10 -216 -12 -249 -3 -23 6 -24 7 -5 14 10 5 35
6 54 4 19 -3 78 -5 130 -6z m474 -66 c8 -21 22 -49 30 -63 18 -31 54 -139 68
-205 16 -77 4 -345 -20 -425 -10 -36 -22 -92 -27 -125 -4 -33 -15 -76 -25 -95
-10 -19 -23 -55 -30 -79 -11 -43 -34 -82 -74 -128 -22 -26 -71 -31 -80 -8 -7
20 -45 19 -53 -1 -4 -11 2 -23 18 -35 20 -15 22 -20 11 -31 -11 -11 -20 -9
-52 10 -34 19 -80 30 -80 18 0 -2 -3 -11 -6 -20 -4 -11 2 -19 20 -26 14 -5 26
-16 26 -25 0 -22 -38 -18 -50 6 -14 26 -49 20 -84 -16 -23 -23 -32 -25 -123
-25 -54 0 -123 4 -155 9 -132 22 -246 171 -299 391 -20 80 -24 128 -27 297 -3
194 -2 210 28 360 37 188 63 230 104 168 9 -14 33 -29 55 -35 21 -5 44 -17 51
-25 7 -8 27 -15 46 -15 23 0 37 -6 44 -20 6 -11 27 -28 47 -38 31 -14 39 -25
50 -67 14 -51 11 -103 -8 -162 -8 -27 -18 -35 -52 -44 -52 -14 -110 -14 -164
0 -40 11 -41 12 -57 79 -15 59 -15 73 -3 122 12 48 19 57 50 73 55 26 47 65
-11 52 -17 -3 -41 -22 -59 -45 -29 -39 -30 -41 -28 -151 2 -105 3 -112 27
-132 14 -12 28 -30 31 -39 6 -16 21 -18 124 -18 l118 0 40 41 39 41 1 115 1
114 -38 40 c-29 30 -46 39 -72 39 -24 0 -43 9 -66 30 -68 63 -23 73 315 68
203 -3 233 -5 257 -21 15 -10 39 -17 55 -15 25 3 29 8 37 51 10 57 28 61 50
10z m-1279 -733 c-14 -51 -13 -59 7 -118 25 -73 55 -100 126 -110 35 -5 48
-12 50 -26 3 -16 0 -18 -19 -10 -13 4 -100 9 -194 11 -93 2 -174 8 -179 13 -5
5 2 22 18 40 14 17 26 35 26 39 0 17 169 226 176 218 2 -1 -3 -27 -11 -57z
m1528 -2 c8 -12 5 -25 -14 -52 -41 -61 -69 -41 -49 34 9 33 15 41 32 38 12 -2
26 -10 31 -20z m-1365 -20 c15 -15 16 -64 2 -73 -16 -10 -48 5 -55 25 -7 23
10 60 28 60 7 0 18 -5 25 -12z m100 -388 c12 -15 22 -32 22 -38 0 -13 -25 -22
-62 -22 -27 0 -30 3 -24 23 3 12 9 40 13 62 5 34 8 37 17 21 6 -10 21 -31 34
-46z m595 -247 c35 -9 10 -28 -43 -31 -62 -4 -86 11 -55 34 18 14 43 13 98 -3z"/>
<path d="M1475 1474 c-49 -7 -105 -24 -105 -33 0 -5 -18 -33 -40 -62 -35 -47
-40 -60 -40 -109 0 -36 7 -67 19 -90 11 -19 28 -50 37 -67 10 -18 22 -33 28
-33 5 0 23 -12 38 -27 25 -23 39 -28 112 -32 46 -3 87 -9 91 -13 14 -14 -8
-28 -44 -28 -49 0 -75 -25 -46 -46 26 -19 54 -17 100 7 22 12 53 24 69 28 41
9 57 38 32 57 -11 8 -32 14 -46 14 -15 0 -29 3 -32 6 -4 3 16 27 43 53 l49 47
0 105 c0 120 -5 146 -30 154 -9 3 -22 16 -28 29 -6 14 -22 26 -39 29 -46 9
-136 15 -168 11z m79 -43 c3 -5 25 -14 48 -20 63 -16 68 -22 80 -92 16 -94 5
-149 -40 -195 l-37 -39 -84 0 c-72 0 -85 3 -95 19 -6 11 -24 33 -41 48 -28 27
-30 33 -30 106 0 76 1 79 36 115 20 20 42 37 50 37 8 1 25 7 39 15 28 16 66
19 74 6z"/>
<path d="M1516 1284 c-9 -8 -16 -24 -16 -34 0 -18 25 -50 39 -50 15 0 31 25
31 50 0 25 -16 50 -31 50 -4 0 -15 -7 -23 -16z"/>
<path d="M1030 1295 c-7 -9 -10 -25 -6 -41 5 -20 12 -25 34 -22 21 2 28 9 30
32 5 42 -32 62 -58 31z"/>
<path d="M885 1060 c-10 -16 34 -79 58 -85 12 -3 58 -5 101 -3 63 2 81 7 90
21 21 34 -17 48 -117 45 -75 -2 -90 0 -98 15 -11 19 -25 22 -34 7z"/>
<path d="M1200 965 c-21 -26 -8 -166 18 -200 12 -15 22 -34 22 -41 0 -18 32
-34 67 -34 36 0 45 7 77 54 23 34 26 49 26 122 0 95 -5 114 -30 114 -25 0 -30
-19 -30 -108 0 -95 -7 -107 -51 -97 -19 4 -37 13 -41 19 -4 6 -8 42 -8 79 0
92 -20 128 -50 92z"/>
<path d="M1624 696 c-3 -8 -4 -29 -2 -48 2 -28 7 -33 28 -33 21 0 26 5 28 33
4 35 -11 62 -35 62 -7 0 -16 -6 -19 -14z"/>
<path d="M916 668 c-8 -18 -14 -34 -13 -34 1 -1 17 1 35 3 29 5 33 9 30 32 -5
40 -35 40 -52 -1z"/>
<path d="M1507 623 c-16 -16 -44 -18 -232 -21 -140 -3 -226 0 -247 7 -37 13
-42 10 -33 -19 15 -46 39 -51 267 -53 158 -2 221 1 243 11 35 16 79 67 70 82
-10 16 -49 12 -68 -7z"/>
</g>
</svg>
