<svg width="34" height="30" viewBox="0 0 34 30" fill="none" xmlns="http://www.w3.org/2000/svg">
<path d="M30.8959 17.6226L33.6316 5.58559C33.8291 4.71649 33.1685 3.88889 32.2772 3.88889H9.54677L9.01633 1.29571C8.88416 0.649359 8.31541 0.185181 7.65563 0.185181H1.72223C0.955161 0.185181 0.333344 0.806998 0.333344 1.57407V2.5C0.333344 3.26707 0.955161 3.88889 1.72223 3.88889H5.76639L9.83167 23.7636C8.8591 24.3229 8.20372 25.3716 8.20372 26.5741C8.20372 28.3639 9.65464 29.8148 11.4445 29.8148C13.2343 29.8148 14.6852 28.3639 14.6852 26.5741C14.6852 25.667 14.3121 24.8475 13.7116 24.2593H25.8439C25.2435 24.8475 24.8704 25.667 24.8704 26.5741C24.8704 28.3639 26.3213 29.8148 28.1111 29.8148C29.9009 29.8148 31.3519 28.3639 31.3519 26.5741C31.3519 25.291 30.606 24.1822 29.5244 23.6571L29.8437 22.2523C30.0412 21.3832 29.3806 20.5556 28.4893 20.5556H12.9559L12.5771 18.7037H29.5415C30.19 18.7037 30.7522 18.255 30.8959 17.6226Z" fill="white"/>
</svg>
